PathFileType	4	(X/Y/Z)	Walk9.trc
DataRate	CameraRate	NumFrames	NumMarkers	Units	OrigDataRate	OrigDataStartFrame	OrigNumFrames
200.000000	200.000000	4	56	mm	200.000000	276	502
Frame#	Times		RBHD		C7		RBack		RASI		RACR1		RUA1		RElbow		RFA1		RWRR		RCAR		LACR1		LElbow		LElbowM		LFA1		RTH1		RTH3		RTH2		RTH4		RLFC		RTB3		RTB2		RTB4		RMT1		RMT5		LTH3		LTH2		LWRU		LTH4		LPSI		CLAV		RPSI		LLFC		LTB1		LBHD		T10		LTB4		RWRU		LTB2		LMT1		LTH1		LWRR		LFHD		RFHD		LCAL		LLMAL		LMT5		RElbowM		LToe		LTB3		LMMAL		RCAL		RToe		LUA1		RLMAL		RMMAL		LCAR
			X1	Y1	Z1	X2	Y2	Z2	X3	Y3	Z3	X4	Y4	Z4	X5	Y5	Z5	X6	Y6	Z6	X7	Y7	Z7	X8	Y8	Z8	X9	Y9	Z9	X10	Y10	Z10	X11	Y11	Z11	X12	Y12	Z12	X13	Y13	Z13	X14	Y14	Z14	X15	Y15	Z15	X16	Y16	Z16	X17	Y17	Z17	X18	Y18	Z18	X19	Y19	Z19	X20	Y20	Z20	X21	Y21	Z21	X22	Y22	Z22	X23	Y23	Z23	X24	Y24	Z24	X25	Y25	Z25	X26	Y26	Z26	X27	Y27	Z27	X28	Y28	Z28	X29	Y29	Z29	X30	Y30	Z30	X31	Y31	Z31	X32	Y32	Z32	X33	Y33	Z33	X34	Y34	Z34	X35	Y35	Z35	X36	Y36	Z36	X37	Y37	Z37	X38	Y38	Z38	X39	Y39	Z39	X40	Y40	Z40	X41	Y41	Z41	X42	Y42	Z42	X43	Y43	Z43	X44	Y44	Z44	X45	Y45	Z45	X46	Y46	Z46	X47	Y47	Z47	X48	Y48	Z48	X49	Y49	Z49	X50	Y50	Z50	X51	Y51	Z51	X52	Y52	Z52	X53	Y53	Z53	X54	Y54	Z54	X55	Y55	Z55	X56	Y56	Z56

276	1.38	-94.757	1580.2	378.27	-130.27	1447.1	305.97	-199.82	1348.3	404.36	-54.499	948.74	427.3	-59.005	1391.6	444.55	-62.347	1206.3	534	-61.441	1075.7	575.1	54.219	975.38	580.56	171.65	909.92	525.01	186.13	849.83	562.31	-105.32	1440.1	124.89	-243.14	1136.9	24.573	-256	1137	102.65	-177.49	994.7	-20.676	-125.85	743.97	463.43	-149.04	558.49	431.71	-70.658	649.85	418.29	-136.2	649.26	451.08	-166.93	454.53	410.76	-204.16	178.47	310.73	-186.94	266.65	391.3	-176.24	271.46	319.04	-134.62	38.064	264.72	-163.89	32.228	354.62	51.765	598.79	97.075	69.05	712.99	111.32	-204.34	877.7	-13.08	6.961	675.91	81.634	-223.89	967.72	211.26	-1.414	1363.5	279.59	-230.91	972.65	315.7	85.342	492.68	114.39	134.23	403.53	169.19	-102.27	1586.4	240.55	-233.99	1140.9	273.76	118.01	311.98	175.58	119.25	864.22	559.91	82.109	313.06	112.3	188.73	60.527	220.73	-40.424	761.8	78.354	-126.97	887.12	10.195	82.496	1605.7	254.27	87.703	1607.9	335.65	-13.707	56.065	212.5	27.474	99.993	161.41	158.66	54.717	144.28	-80.899	1037.3	486.59	226.41	71.641	196.97	104.61	220.48	181.54	67.619	117.41	242.85	-338.56	41.935	305.33	-78.846	26.999	286.8	-186.99	1257.3	33.064	-282.15	85.349	347	-257.16	100.78	259.94	-137.06	833.34	-36.173
277	1.385	-88.411	1579.7	377.89	-123.88	1446.6	305.69	-193.63	1347.7	404.24	-48.849	947.79	427.47	-52.849	1390.9	444.37	-55.325	1206.2	534.49	-52.996	1075.7	575.84	64.057	977.2	580.78	182.39	913.97	524.65	198.16	854.09	561.78	-98.688	1439	124.62	-237.7	1136.2	25.038	-250.02	1136.4	103.35	-173.72	993.49	-20.611	-120.81	743.45	463.41	-145.38	557.97	431.67	-66.545	648.76	418.12	-132.02	648.8	450.84	-164.53	454.32	410.57	-203.32	178.28	310.56	-185.06	266.42	391.11	-174.74	270.92	318.93	-134.55	38.003	264.66	-163.86	32.212	354.55	57.757	597.93	97.415	75.067	712.09	111.66	-201.57	876.8	-12.948	13.158	675.04	81.413	-217.85	967.38	210.75	4.8904	1362.5	279.44	-225.03	971.78	315.13	90.493	491.28	114.97	141.86	403.81	169.71	-95.801	1585.6	239.92	-227.57	1139.9	273.2	129.18	311.67	175.64	130.92	867.2	559.86	93.66	311.66	112.42	209.65	62.158	221.12	-34.312	761.16	78.173	-123.77	885.19	9.9042	88.682	1604.9	253.7	93.909	1607.2	334.93	7.804	51.579	212.42	47.406	96.41	161.29	180.39	54.988	144.77	-72.449	1036.7	487.45	247.42	74.262	197.43	119.62	219.95	181.38	87.036	115.2	242.52	-338.51	42.381	305.15	-78.715	26.875	286.86	-181.03	1256.3	33.276	-281.89	85.625	346.92	-256.81	100.89	259.9	-135.15	831.42	-36.728
278	1.39	-82.016	1578.8	377.25	-117.43	1445.6	305.6	-187.35	1346.8	403.8	-43.474	946.97	427.47	-46.618	1390.3	444.39	-48.335	1206	534.64	-45.099	1075.7	576.16	73.907	978.76	581	193.05	917.92	524.63	210.23	858.26	561.43	-92.166	1438.1	124.43	-231.99	1135.5	25.289	-244.17	1135.7	104.37	-169.82	992.12	-20.524	-115.61	742.79	463.25	-141.74	557.49	431.51	-62.077	647.79	417.93	-127.38	648.3	450.99	-161.74	453.96	410.42	-202.2	178.08	310.62	-183.84	266.18	391	-173.08	270.46	319.02	-134.47	37.943	264.61	-163.82	32.204	354.49	63.308	596.83	97.761	80.881	710.9	111.93	-198.9	875.75	-12.898	19	674.05	81.32	-211.34	966.28	210.56	11.429	1361.5	279.25	-219.04	970.96	314.64	95.656	489.5	115.58	149.23	404.13	170.06	-89.548	1584.5	239.46	-221.09	1139	272.95	140.36	311.67	175.72	142.7	869.98	559.79	105.02	310.26	112.56	230.82	64.191	221.48	-28.335	760.05	77.966	-120.79	882.97	9.743	94.756	1604	253.04	100.36	1606.6	334.44	28.856	47.7	211.82	67.613	93.21	161.08	201.73	55.784	144.75	-64.195	1036.1	488.31	268.11	77.185	197.76	134.34	219.37	181.31	106.19	113.32	242.28	-338.35	42.89	305.04	-78.629	26.814	286.84	-175.16	1255.2	33.45	-281.63	85.876	346.92	-256.53	100.99	259.81	-132.88	829.92	-37.234
279	1.395	-75.725	1578.2	376.48	-110.91	1444.6	305.1	-181.23	1345.9	403.45	-37.861	945.7	427.67	-40.423	1389.7	444.28	-41.637	1205.7	534.83	-36.706	1075.3	576.99	83.799	980.47	581.12	203.63	921.82	524.44	221.78	862.25	561.04	-85.702	1436.9	124.2	-226.33	1134.6	25.988	-237.96	1135.2	104.81	-165.78	990.8	-20.517	-110.4	742.06	463.14	-138.11	556.87	431.29	-57.366	646.81	417.75	-123.03	647.54	450.91	-158.58	453.52	410.38	-201.48	177.87	310.65	-182.09	266	390.77	-171.53	270.15	318.57	-134.41	37.879	264.63	-163.78	32.214	354.41	68.718	595.49	98.093	86.634	709.49	112.4	-196.03	874.54	-12.583	24.933	673.04	81.245	-204.83	965.4	210.2	17.777	1360.7	279.22	-212.72	969.92	314.22	100.27	487.72	116.16	156.17	404.56	170.29	-83.472	1583.5	238.93	-214.82	1138.1	272.89	151.1	311.59	176.11	153.87	872.73	559.81	115.79	308.81	112.73	251.35	66.246	222.15	-22.118	759.08	77.666	-117.64	881.16	9.1272	101.32	1603.1	252.32	106.64	1605.8	333.82	50.005	44.235	211.37	87.368	90.594	160.85	222.89	56.643	145	-55.944	1035.6	489.12	288.3	80.202	198.26	149.12	219.07	181.19	124.83	111.81	242.02	-338.24	43.501	305.03	-78.858	26.056	286.51	-168.67	1254.2	33.47	-281.45	86.151	346.89	-256.1	101.12	259.77	-130.62	828.28	-37.774
